<svg id="Layer_1" data-name="Layer 1" xmlns="http://www.w3.org/2000/svg" viewBox="0 0 2905.51 2905.51"><defs><style>.cls-1{fill:#be1622;}.cls-2{fill:#53b3f4;}.cls-3{fill:#e6b2c7;}.cls-4{fill:#e8b2c8;}.cls-5{fill:#876844;}.cls-6{fill:#98794d;}.cls-7{fill:#846645;}.cls-8{fill:#dda6c0;}.cls-9{fill:#b69f7e;}.cls-10{fill:#1d1d1b;}.cls-11,.cls-12{fill:#fff;}.cls-12{opacity:0.7;}.cls-13{fill:#0077d8;}.cls-14{fill:#2b605a;opacity:0.6;}.cls-15{fill:#282626;}.cls-16{fill:none;stroke:#575756;stroke-miterlimit:10;stroke-width:2.69px;}.cls-17{fill:#b32b35;}.cls-18{fill:#302e2e;}.cls-19{fill:#dadada;}.cls-20{fill:#ededed;}.cls-21{fill:#c6c6c6;}.cls-22{fill:#aa927b;}.cls-23{fill:#377f78;}.cls-24{fill:#896b46;}.cls-25{fill:#590909;}.cls-26{fill:#96273a;}.cls-27{fill:#f6f6f6;}.cls-28{fill:#ffd72e;}</style></defs><path class="cls-1" d="M2582.63,294.92l0,0c-1-1.19-2-2.36-3-3.53Q2581.18,293.14,2582.63,294.92Z"/><ellipse class="cls-2" cx="2130.59" cy="2503.06" rx="495.77" ry="111.04"/><ellipse class="cls-2" cx="480.4" cy="2473.02" rx="438.11" ry="141.08"/><path class="cls-3" d="M2214.41,2377c-6.38,4.3-12.9,8.5-19.39,12.72-13.1,8.29-26.3,16.48-39.78,24.21s-27,15.33-40.9,22.5c-7,3.7-13.84,7.22-20.91,10.53s-14.08,6.76-21.25,9.9c-14.27,6.48-28.85,12.34-43.58,17.87s-29.83,10.29-45.17,14.48c-7.64,2.16-15.43,3.94-23.23,5.7l-11.82,2.27c-3.92.8-7.94,1.28-11.92,1.93a301.18,301.18,0,0,1-48.55,3.45,220.24,220.24,0,0,1-49.69-6.35,179.39,179.39,0,0,1-47.53-19.33,151.32,151.32,0,0,1-40.23-33.56,183.67,183.67,0,0,1-27.39-43.9,273.35,273.35,0,0,1-15.91-47.29c-3.84-15.89-6.68-31.75-9-47.51s-3.88-31.48-5.32-47-2.66-30.94-4-46.35c-2.43-30.68-5.1-61-9.46-90.65a476.57,476.57,0,0,0-19.93-86.34,282.22,282.22,0,0,0-39.42-76.71,243.62,243.62,0,0,0-28.51-32.29,264.07,264.07,0,0,0-33.69-27.36,298.32,298.32,0,0,0-38-21.87,365.57,365.57,0,0,0-41.21-16.78,415.19,415.19,0,0,0-43.15-11.84c-14.68-3.29-29.57-5.83-44.64-7.88s-30.19-3.41-45.46-4.41-30.58-1.47-45.94-1.62c-30.71-.16-61.52,1-92.46,3.15a803.78,803.78,0,0,1,91.9-15,643.48,643.48,0,0,1,93.74-2.94,461.74,461.74,0,0,1,93.89,13.85,354.9,354.9,0,0,1,45.78,15.32,294.83,294.83,0,0,1,83.16,51.06,274.08,274.08,0,0,1,34.18,35.79c2.66,3.16,5.08,6.53,7.53,9.85s4.74,6.77,7.11,10.16c4.52,6.91,8.81,14,12.73,21.22a342.05,342.05,0,0,1,20.32,44.77c11.3,30.63,18.52,62.19,23.44,93.56s7.94,62.65,10.32,93.55,4.52,61.45,8.4,91.14c1.87,14.86,4.3,29.44,7.48,43.65a254,254,0,0,0,12.73,40.7,155.4,155.4,0,0,0,9.09,18.5,127.32,127.32,0,0,0,11.4,16.62,118.56,118.56,0,0,0,29.79,26.52c22.85,14.7,50.36,22.45,79.13,24.29s58.55-1,87.92-7.05l5.52-1.1c1.84-.36,3.69-.75,5.5-1.23,3.66-.85,7.35-1.58,11-2.54l11-2.91c3.65-1,7.28-2.05,10.94-3l5.48-1.54,5.44-1.65c3.64-1.13,7.28-2.18,10.91-3.37l10.83-3.57c3.63-1.17,7.2-2.5,10.81-3.72,57.68-20.2,113.62-46.28,169.22-73.64C2227.34,2368.4,2220.78,2372.75,2214.41,2377Z"/><path class="cls-4" d="M2276.31,2501.22a5,5,0,0,1-5.19-4.75l-.2-3.45h0a14.05,14.05,0,0,1,13.24-14.82l139.16-7.87a16,16,0,0,1,16.87,15.06l.27,4.85a1.69,1.69,0,0,1-1.6,1.79l-162.49,9.19Z"/><ellipse class="cls-5" cx="1813.38" cy="1134.45" rx="223.83" ry="277.48" transform="translate(-284.57 1551.51) rotate(-43.27)"/><path class="cls-6" d="M2290.39,2531a163.21,163.21,0,0,0,157.43-168.81q-7.5-221-15.55-442.09a267.58,267.58,0,0,0-30.46-116,722.47,722.47,0,0,1-49.83-117.9c-12.58-39.16-22.27-70.19-23.8-111.39a324.8,324.8,0,0,1,40.41-165.84l-408.82,221.59a370.72,370.72,0,0,1,8.83,41.71c7.68,49.79,1.59,82.24-6.42,145.61-10.46,84.16-5.59,72.47-16.92,158.27-5.77,43.8-9.17,71.51-16.84,110.72a2025.55,2025.55,0,0,1-55.36,216.71,130.9,130.9,0,0,0-5.94,29.89v.19a168.25,168.25,0,0,0,156.1,179.59l250.34,17.49A163.16,163.16,0,0,0,2290.39,2531Z"/><path class="cls-7" d="M1812.19,1690.67q89.6-25.34,179.19-50.73c0-1.08-.08-2.13-.11-3.21q-.9-23.87-1.75-47.81c-36,19.62-65.44,34-86,43.65-13.67,7.49-24.78,13.27-32,17-22.75,11.63-36.53,17.72-49.69,28.48-2.06,1.69-4.12,3.46-6.17,5.41a.16.16,0,0,0-.09.1A14.18,14.18,0,0,0,1812.19,1690.67Z"/><path class="cls-6" d="M2762.2,1296.32c-4.8,1.14-11.81,2.82-20.25,4.89-207.73,51-363.25,114.74-440.51,148.75-120.26,52.94-270,118.89-262.49,143.56,8.77,28.67,230.59,3.81,431.58-78.61,137-56.2,238.65-128.61,304.71-183a235,235,0,0,0-7.46-22.42C2766,1304.82,2764.1,1300.44,2762.2,1296.32Z"/><path class="cls-6" d="M2470.58,1179.28l1.26-45.71-11.65-16.49a393.8,393.8,0,0,1-82.42,3.29c-74.84-5.23-108.48-29.48-181.52-47.91-26.88-6.75-90.4-22.75-159.63-16.67-40,3.49-116,17.37-202,83.23a862.52,862.52,0,0,1,53.73,284.72l109,314.72c70.66-120.76,148.12-193.31,208-237.91,73.58-54.8,185.33-115.74,228.26-199.27A360.16,360.16,0,0,0,2470.58,1179.28Z"/><rect class="cls-8" x="2428.31" y="1113.42" width="47.14" height="36.13" rx="18.04" transform="translate(-238.25 1366.43) rotate(-29.76)"/><path class="cls-9" d="M2425.42,2451a147,147,0,0,0,18.7-37.5,137.21,137.21,0,0,0,3.32-68.51q-6.17-178-12.51-356.17c-19-85.22-81.32-142.77-143.8-143.38-45.76-.43-81.73,29.52-86.71,34.46a175.31,175.31,0,0,0-48.44,97.59l-54.67,336.27c-10.84,66.93,26.81,128.92,80.56,132.67C2299.6,2488.89,2399.6,2486,2425.42,2451Z"/><path class="cls-9" d="M2093.56,1642.38a744.52,744.52,0,0,0,13.59,84.49c3.51,15.27,5.54,21.52,17.35,62.5,27.72,95.63,30.35,108.38,31.92,124.69a298.05,298.05,0,0,1-3.15,78.63l281.36-3.83a658.77,658.77,0,0,0-2.42-68.68c-4-46-6.1-69.93-17.17-98.83-13.39-35.16-24.49-36.82-45.82-87a478.12,478.12,0,0,1-17.3-48.18c-11.25-36.42-27.08-87.9-23.17-143.92,5.07-73.33,42-132.39,61.37-163.32a656.36,656.36,0,0,0,43.58-77.62c8.29-17.74,14.44-32.64,18.37-42.69C2225.87,1424.13,2088,1585.22,2093.56,1642.38Z"/><circle class="cls-10" cx="2118.35" cy="1180.85" r="23.89"/><circle class="cls-11" cx="2106.02" cy="1175.82" r="4.1"/><path class="cls-4" d="M2249.38,2531.14l-.07-1.17h0a15.76,15.76,0,0,1,14.84-16.62l179.33-10.14a17.92,17.92,0,0,1,18.91,16.88l.15,2.69h0a1.93,1.93,0,0,1-1.82,2l-205.41,11.62A5.87,5.87,0,0,1,2249.38,2531.14Z"/><path class="cls-12" d="M2117.66,1367.14a166.22,166.22,0,0,1,11.39-47.05,177.08,177.08,0,0,1,59.17-76.36,164.88,164.88,0,0,1,42.69-22.84A225.83,225.83,0,0,0,2117.66,1367.14Z"/><path class="cls-12" d="M2218.08,1251.52a130.64,130.64,0,0,0-15.65,28.26,126,126,0,0,0-8,31.25,155.9,155.9,0,0,0-.72,32.89,92.8,92.8,0,0,1-4.47-33.37,101.49,101.49,0,0,1,24.95-62.24,95.64,95.64,0,0,1,26.2-21.19A164.52,164.52,0,0,0,2218.08,1251.52Z"/><path class="cls-12" d="M2253.15,1231.89a99.58,99.58,0,0,0-16.28,91.86,138,138,0,0,0,13.59,29.83,87.85,87.85,0,0,1-25.05-61.51,81.48,81.48,0,0,1,7.55-33.29,78.53,78.53,0,0,1,20.19-26.77Z"/><path class="cls-6" d="M1936.51,1080.26c-11.44,54.5-21.86,113-30.48,175-8.07,59.08-13.94,115.44-17.66,168.61-12.83,7.26-125.84,69.46-248.25,15.76-77.57-34.24-150.34-111.18-157.95-210.64-1.53-20-4.12-88.93,41.94-150.7,84.48-113.39,245.69-86.51,255.48-84.71A298.12,298.12,0,0,1,1936.51,1080.26Z"/><path class="cls-4" d="M1785,1114.41c-24.92-2.09-83.18-5.93-120.94,36.17a123,123,0,0,0-18.22,130.53c29.61,60.18,125.77,91.38,223.44,49.66a218.39,218.39,0,0,1,15.07-179.65A205.4,205.4,0,0,0,1785,1114.41Z"/><path class="cls-13" d="M2271.22,1096.15c-6.94-10.58-14.21-14.9-19.34-16.9-13.31-5.2-22.65,1-41.94-5.71-4.63-1.61-5-2.29-11.1-4.3-10.92-3.6-18.26-4.24-25.73-5.53-15.75-2.7-24.38-6.89-30.42-8.56-31.18-8.62-82.48,28.29-114.66,69.93-4.44,5.75-4.17,3.44-34.79,58-36.77,65.46-36.63,54.44-46,76.92-23,55.36-6.84,81.25-35.53,131.44a189.66,189.66,0,0,1-23.33,32.35c-3.29,26.32,2.27,40.51,8.42,48.69,3.13,4.15,10.35,12,14.67,25.27,1.81,5.56,2,8.63,2.92,13.19,1.78,8.68,5.88,20.75,16.26,34.86a386.93,386.93,0,0,0,44.07-39.5c22.18-23.19,27.91-38.45,50.82-66.12,21.39-25.84,27.91-27.49,44.28-46,51.7-58.6,27.35-88.29,71-135.11,34.54-37,63.55-33.24,82.14-73.46,4.56-9.87,8.91-23.29,20.78-45.48A381.56,381.56,0,0,1,2271.22,1096.15Z"/><path class="cls-14" d="M2228,1076.92a71.81,71.81,0,0,0-16.91,5.59c-24.57,11.68-35.61,34.28-39.44,43.4a62.7,62.7,0,0,1,8.5-24.92c10.47-17.39,26.48-24.42,32.26-26.65a64.8,64.8,0,0,0,8.22,1.86A66.43,66.43,0,0,0,2228,1076.92Z"/><path class="cls-14" d="M2169.27,1063c-2.3-.46-4.71-1-7.2-1.66-1.94-.5-3.81-1-5.59-1.59-1.21,1.53-3.09,4-5.18,7.16-4.44,6.73-5.48,10-10,17a72.22,72.22,0,0,1-5.6,7.78,52.75,52.75,0,0,1-14.79,12,49.49,49.49,0,0,0,16-10.32c7.18-7,8.13-12.43,15.2-19.42A50.33,50.33,0,0,1,2169.27,1063Z"/><path class="cls-14" d="M1914.4,1510.89a50.13,50.13,0,0,1,6.56-23.16c6.07-10.35,14-14.25,22.26-21.08,7.7-6.35,17.88-17,26.49-35.12-14,17.06-25,26.44-32.73,31.91a128,128,0,0,0-19.16,16.22,123.43,123.43,0,0,0-9.23,10.7c1,3.5,2.06,7.28,3.06,10.79.85,3,1.91,6.74,2.75,9.74"/><path class="cls-14" d="M2108,1202.37c-11.44,3.62-35.1,12.91-54.67,35.9-33,38.75-28.15,85.62-27.12,94.17.62-14.77,4.2-52,31-87.3A153,153,0,0,1,2108,1202.37Z"/><path class="cls-14" d="M1993.9,1211.28a218.35,218.35,0,0,1-12.07,24c-10,17.16-18,25.59-23.57,33.59-7.76,11.19-16.13,29.51-16.38,59.84,2.79-28.74,12-46.6,20.3-57.76,6.93-9.36,17.31-19.62,25.3-38.89A116.85,116.85,0,0,0,1993.9,1211.28Z"/><path class="cls-15" d="M2723,1937c39.42-48.5,69.09-105.29,88.83-165.48a574.47,574.47,0,0,0,27.51-188.12,608.1,608.1,0,0,0-34.24-188.27,619.42,619.42,0,0,0-38.84-88,629.76,629.76,0,0,0-52.14-81,638.69,638.69,0,0,0-64-71.93,616.54,616.54,0,0,0-246.22-145.05c-61.06-18.69-125-27.61-188.4-25.4-63.3,2.37-126.07,15.24-183.56,39.75,60.3-16.12,122.23-23.33,183.47-20.28a610.7,610.7,0,0,1,178.67,35.52,633.53,633.53,0,0,1,159.84,85,628,628,0,0,1,178,202.12,616.49,616.49,0,0,1,37.9,82.11,623.76,623.76,0,0,1,38.46,176.8,606.66,606.66,0,0,1-15.1,181.54C2779.2,1826,2755.21,1883.52,2723,1937Z"/><path class="cls-16" d="M2032,1023.5q45.62,309.82,91.25,619.63L2723,1937"/><path class="cls-17" d="M2286.36,1563.25a409.86,409.86,0,0,1-37.84,50c-26.64,30.06-50.57,56.4-77.4,53.76-3.57-.35-15.45-1.51-21.14-10.57-7-11.13.62-25.84,1.41-27.32"/><path class="cls-17" d="M2286.36,1563.25a408.68,408.68,0,0,0-62.71-.92c-40.09,2.51-75.57,5.18-90,28-1.92,3-8.31,13.12-4.66,23.17,4.47,12.36,20.75,15.41,22.4,15.69"/><rect class="cls-18" x="2445.6" y="1125.97" width="13.02" height="712.8" transform="translate(2195.74 4336.23) rotate(-116.02)"/><path class="cls-19" d="M2863.23,1281.67l-89,43.46q23,6.69,46,13.4Z"/><path class="cls-20" d="M2791.92,1280.65q-8.84,22.23-17.7,44.48l89-43.46Q2827.59,1281.16,2791.92,1280.65Z"/><rect class="cls-21" x="2764.37" y="1315.13" width="18.89" height="20.36" rx="2.97" transform="translate(2799.71 4399.38) rotate(-116.02)"/><rect class="cls-22" x="2119.63" y="1636" width="15.71" height="9.7" rx="1.1" transform="translate(1586.28 4272.51) rotate(-116.02)"/><path class="cls-23" d="M2101.06,1629.19h0a6.67,6.67,0,0,1,6.67,6.67v42.43a0,0,0,0,1,0,0h-13.34a0,0,0,0,1,0,0v-42.43A6.67,6.67,0,0,1,2101.06,1629.19Z" transform="translate(1536.68 4267.32) rotate(-116.02)"/><path class="cls-6" d="M2762.2,1296.32a16,16,0,0,0-2.52,7.25c-.72,8.37,5.85,14.15,6.7,14.87l9.56-4.62a24.89,24.89,0,0,0-2.05-5.94A26.6,26.6,0,0,0,2762.2,1296.32Z"/><path class="cls-24" d="M1812.11,1691.4c-1.95,25.28,76.25,63.93,151.39,58.89,96.54-6.45,181.3-84.55,171.11-111.07-8.28-21.54-80.8-13.07-143.34-2.49-17.52,3-34.24,6.11-48.57,8.78-52.23,9.76-100.76,18.83-120.87,32.51a29.62,29.62,0,0,0-6.17,5.41.16.16,0,0,0-.09.1,14.18,14.18,0,0,0-3.38,7.14C1812.15,1690.9,1812.13,1691.16,1812.11,1691.4Z"/><polygon class="cls-15" points="385.27 1371.47 225.1 2531.22 171.62 2531.22 332.78 1364.23 359.02 1367.84 385.27 1371.47"/><polygon class="cls-15" points="760.66 2493.59 706.77 2493.59 494.66 1333.33 520.73 1328.56 546.81 1323.79 760.66 2493.59"/><polygon class="cls-15" points="548.48 2375.64 495.15 2375.64 363.75 1199.34 390.1 1196.41 416.43 1193.45 548.48 2375.64"/><path class="cls-1" d="M601.92,860.81a5.64,5.64,0,1,0-5.64-5.64,5.71,5.71,0,0,0,5.64,5.64Z"/><path class="cls-25" d="M1079.42,1068.31c9.56,103.09,8.09,204.13-4.38,300.34-10.46,80.76-31.35,164.87-64.59,250.86-39.2,101.4-64.91,165.22-132.79,209-53.56,34.5-108.39,40.4-133.9,41.45-78.37,3.23-136.1-27.27-163.81-45.4-52-34-100.56-85-144.38-151.69S354.87,1527.19,326,1438.11c-29.95-92.27-50-191.32-59.54-294.4s-8.08-204.14,4.38-300.34c12.05-92.88,33.78-177.28,64.59-250.87s69.18-132.69,114-175.65c24.5-23.48,75.25-63.56,152.67-74.74,18.6-2.69,91.77-11.27,166.2,28.2,59.66,31.63,87.92,77.81,142,168.88,27,45.5,72.74,121.08,109.62,234.72C1049.83,866.17,1069.86,965.22,1079.42,1068.31Z"/><path class="cls-17" d="M787.66,1857.06c-53.83,5-107.93-10.12-160.79-44.93-51-33.6-98.73-84-141.78-149.91s-79.28-143.9-107.71-231.9c-29.45-91.15-49.16-189-58.61-290.82s-8-201.63,4.13-296.64c11.76-91.73,33-175.08,63.23-247.75s67.81-131,111.8-173.43c45.55-43.93,95.95-68.74,149.78-73.73s107.93,10.12,160.79,44.93c51,33.6,98.74,84,141.78,149.92S1029.57,686.69,1058,774.69c29.45,91.15,49.17,189,58.61,290.82s8.05,201.64-4.13,296.65c-11.76,91.72-33,175.07-63.23,247.74s-67.81,131-111.79,173.43C891.89,1827.26,841.49,1852.07,787.66,1857.06ZM663.41,517.26c-41.78,3.88-80.87,23.1-116.15,57.13C513.15,607.27,484,652.55,460.53,709S420.58,830,411.46,901.17c-9.44,73.59-10.51,151-3.18,230s22.62,154.92,45.42,225.52c22.05,68.24,50.17,128.77,83.58,179.9s70.43,90.29,110,116.34c40.94,27,82.89,38.67,124.68,34.79s80.87-23.09,116.16-57.12c34.1-32.89,63.28-78.17,86.72-134.58s40-121.08,49.07-192.21c9.44-73.59,10.51-151,3.18-230s-22.61-154.92-45.42-225.52c-22-68.24-50.16-128.76-83.58-179.9s-70.42-90.28-110-116.34C747.15,525.09,705.2,513.39,663.41,517.26Z"/><path class="cls-26" d="M770.82,1714.92C729,1718.8,687,1707.06,645.93,1680c-39.63-26.1-76.68-65.27-110.11-116.43s-61.57-111.75-83.65-180.1c-22.87-70.8-38.19-146.79-45.52-225.87s-6.25-156.6,3.21-230.4C419,856,435.52,791.24,459,734.81s52.66-101.75,86.82-134.69c35.39-34.13,74.53-53.4,116.34-57.27S746,550.71,787,577.75c39.64,26.1,76.68,65.27,110.11,116.43s61.57,111.75,83.65,180.1c22.88,70.8,38.19,146.8,45.52,225.87s6.26,156.6-3.2,230.4c-9.14,71.24-25.66,136-49.11,192.41s-52.67,101.75-86.83,134.69C851.77,1691.78,812.62,1711.05,770.82,1714.92ZM677.14,704.71c-59.9,5.55-112.13,54.9-147,138.94s-48.37,192.73-37.87,306,43.71,217.66,93.5,293.85,110.19,115.09,170.09,109.53,112.12-54.9,147.05-138.94,48.37-192.73,37.86-306S897,890.43,847.23,814.24,737,699.15,677.14,704.71Z"/><path class="cls-27" d="M772,1688.55c-41.81,3.87-83.82-7.87-124.88-34.91-39.64-26.1-76.68-65.27-110.11-116.43s-61.58-111.75-83.65-180.09c-22.88-70.81-38.19-146.8-45.53-225.88s-6.25-156.6,3.21-230.4c9.14-71.24,25.66-136,49.11-192.41S512.84,606.68,547,573.74c35.39-34.13,74.53-53.4,116.34-57.27s83.82,7.86,124.88,34.9c39.64,26.1,76.69,65.27,110.11,116.43S959.91,779.55,982,847.9c22.87,70.8,38.19,146.8,45.52,225.88s6.25,156.59-3.21,230.39c-9.14,71.24-25.66,136-49.11,192.41s-52.66,101.75-86.82,134.69C853,1665.4,813.84,1684.67,772,1688.55ZM678.35,678.33c-59.9,5.55-112.12,54.9-147.05,138.94s-48.37,192.73-37.86,306,43.71,217.66,93.49,293.85S697.12,1532.24,757,1526.68s112.12-54.9,147.05-138.94,48.37-192.73,37.87-306-43.71-217.66-93.5-293.85S738.25,672.78,678.35,678.33Z"/><path class="cls-19" d="M755.5,1549.75c-30.28,2.81-60.72-5.7-90.48-25.29-28.72-18.91-55.55-47.29-79.77-84.34s-44.6-80.95-60.59-130.47c-16.58-51.31-27.68-106.37-33-163.65s-4.53-113.44,2.33-166.93c6.62-51.61,18.59-98.51,35.57-139.38s38.15-73.7,62.9-97.57c25.65-24.73,54-38.7,84.29-41.51s60.72,5.71,90.48,25.3C796,744.82,822.79,773.2,847,810.25s44.6,81,60.6,130.47c16.58,51.31,27.68,106.37,33,163.65s4.52,113.44-2.33,166.93c-6.62,51.61-18.59,98.51-35.57,139.38s-38.15,73.7-62.9,97.57C814.14,1533,785.78,1547,755.5,1549.75ZM692.77,873.31c-35.57,3.3-66.57,32.6-87.31,82.51S576.73,1070.26,583,1137.53s26,129.25,55.52,174.49,65.43,68.33,101,65,66.57-32.6,87.31-82.51,28.73-114.44,22.49-181.71-26-129.25-55.52-174.49S728.34,870,692.77,873.31Z"/><path class="cls-17" d="M757.06,1527.08c-30.28,2.8-60.73-5.71-90.48-25.3-28.72-18.91-55.56-47.29-79.77-84.34s-44.6-81-60.6-130.47c-16.57-51.31-27.67-106.37-33-163.65s-4.53-113.44,2.33-166.92c6.62-51.62,18.58-98.52,35.57-139.39s38.15-73.7,62.9-97.57c25.64-24.73,54-38.7,84.28-41.5s60.73,5.7,90.49,25.29c28.71,18.91,55.55,47.29,79.76,84.34s44.6,80.95,60.6,130.47c16.57,51.31,27.67,106.37,33,163.65s4.53,113.44-2.33,166.93c-6.61,51.61-18.58,98.51-35.57,139.38s-38.15,73.71-62.9,97.57C815.7,1510.3,787.34,1524.27,757.06,1527.08ZM694.33,850.63c-35.57,3.3-66.58,32.6-87.32,82.51s-28.72,114.44-22.48,181.71,26,129.25,55.52,174.49,65.43,68.34,101,65,66.58-32.6,87.32-82.5,28.72-114.44,22.48-181.72-26-129.25-55.51-174.49S729.9,847.34,694.33,850.63Z"/><path class="cls-26" d="M738.62,1367.68c-35.52,3.29-71.34-19.77-100.86-65s-49.21-107.06-55.44-174.24S584.06,996.85,604.77,947s51.68-79.1,87.2-82.39,71.33,19.77,100.86,65,49.21,107.06,55.44,174.24-1.75,131.63-22.46,181.47S774.14,1364.39,738.62,1367.68Zm-30.53-329.22c-22.65,2.1-37.85,38.66-33.88,81.5s25.64,76,48.29,73.89,37.84-38.66,33.87-81.5S730.74,1036.36,708.09,1038.46Z"/><path class="cls-27" d="M741,1354c-35.52,3.3-71.34-19.77-100.86-65S590.94,1182,584.71,1114.84s1.75-131.63,22.46-181.47,51.67-79.1,87.19-82.39,71.34,19.77,100.86,64.95,49.21,107.06,55.44,174.24-1.74,131.64-22.45,181.47S776.53,1350.74,741,1354Zm-30.53-329.22c-22.65,2.1-37.84,38.66-33.87,81.51s25.63,76,48.28,73.88,37.85-38.66,33.87-81.5S733.13,1022.71,710.48,1024.81Z"/><ellipse class="cls-19" cx="717.14" cy="1111.7" rx="43.51" ry="82.3" transform="matrix(1, -0.09, 0.09, 1, -99.59, 70.97)"/><ellipse class="cls-17" cx="717.69" cy="1102.51" rx="43.51" ry="82.3" transform="translate(-98.74 70.98) rotate(-5.3)"/><polygon class="cls-26" points="712.91 1066.07 721.16 1088.81 735.1 1091.29 726.94 1110.35 731.64 1135.75 718.36 1124.78 707.32 1138 707.26 1112.17 695.74 1094.94 708.99 1089.94 712.91 1066.07"/><polygon class="cls-28" points="713.88 1061.44 722.12 1084.19 736.07 1086.66 727.91 1105.72 732.61 1131.12 719.32 1120.16 708.28 1133.38 708.23 1107.55 696.71 1090.32 709.96 1085.32 713.88 1061.44"/></svg>